<?xml version="1.0" encoding="UTF-8" standalone="no"?>
<!DOCTYPE svg  PUBLIC '-//W3C//DTD SVG 1.1//EN'  'http://www.w3.org/Graphics/SVG/1.1/DTD/svg11.dtd'>
<svg xmlns="http://www.w3.org/2000/svg" version="1.1">
<defs>
<font id="FuturaCondMediumOblique" horiz-adv-x="385">
<font-face font-weight="500" font-family="Futura Cond" underline-thickness="19" descent="-200" unicode-range="U+0020-00FC" panose-1="0 0 0 0 0 0 0 0 0 0" ascent="800" cap-height="796" bbox="8 -245.043 928.417 1031" slope="-12" units-per-em="1000" x-height="543" underline-position="-147" font-style="oblique"/>
<missing-glyph/>
<glyph unicode=" " glyph-name="space" horiz-adv-x="173"/>
<glyph unicode="!" d="M269 798l-94 -593h-72l94 593h72zM164 44q-5 -23 -22.5 -37.5t-40.5 -13.5q-19 0 -32 17t-11 37q4 23 20.5 38.5t39.5 16.5q21 1 36 -18.5t10 -39.5z" glyph-name="exclam" horiz-adv-x="201"/>
<glyph unicode='&quot;' d="M388 797l-46 -236h-62l30 236h78zM258 797l-44 -236h-62l27 236h79z" glyph-name="quotedbl" horiz-adv-x="319"/>
<glyph unicode="#" d="M519 522l-15 -54h-98l-33 -137h96l-14 -54h-96l-64 -264h-54l68 264h-75l-66 -264h-50l67 264h-105l15 55h103l35 136h-103l16 54h99l71 276h51l-71 -276h72l72 276h50l-71 -276h100zM355 468h-71l-37 -137h74z" glyph-name="numbersign" horiz-adv-x="461"/>
<glyph unicode="$" d="M497 743l-45 -55l-33 20q-40 24 -96 15q-49 -7 -82 -48t-37 -96q-2 -39 20 -70t52 -49t68.5 -43t57.5 -47q39 -43 48.5 -87.5t-4.5 -95.5q-16 -71 -64.5 -119.5t-114.5 -63.5l-21 -5l-16 -102h-50l15 99q-31 2 -72 21q-33 16 -59 49l50 51l19 -15q30 -21 51.5 -30 t50.5 -7q54 5 89.5 40.5t47.5 91.5q14 60 -17.5 100.5t-111.5 89.5q-131 82 -108 207q14 71 56 122.5t102 67.5l31 7l16 100h50l-16 -98q26 -3 47 -9q43 -14 76 -41z" glyph-name="dollar" horiz-adv-x="465"/>
<glyph unicode="%" d="M338 621q-6 -37 -11.5 -63t-16 -59t-23.5 -54t-33.5 -35t-46.5 -13q-95 5 -71 188q6 46 14 78t23 67.5t40.5 54.5t61.5 19q91 0 63 -183zM608 796l-468 -796h-37l471 796h34zM576 213q-7 -47 -15 -79.5t-22.5 -70t-38 -56.5t-55.5 -18q-96 5 -71 187q6 46 14 78t23 68 t40.5 55t61.5 19q91 0 63 -183zM290 606q5 30 7 53t1.5 50.5t-10.5 42.5t-29 13q-46 -5 -72 -153q-6 -30 -9 -56.5t-2.5 -55.5t10.5 -45.5t29 -16.5q49 1 75 168zM528 198q5 30 7 52.5t1.5 50t-10.5 42.5t-29 13q-45 -3 -73 -153q-6 -32 -8.5 -57t-2.5 -54.5t10 -46 t29 -15.5q50 1 76 168z" glyph-name="percent" horiz-adv-x="596"/>
<glyph unicode="&amp;" d="M523 180l-82 -80l32 -100h-76l-17 44l-23 -15q-60 -41 -132 -37q-74 4 -115.5 74t-27.5 149q20 119 127 204l25 19l-6 20q-8 23 -11 31t-10 28.5t-8 28t-5 28.5t-2 30t2 33q7 70 56 118.5t118 48.5q73 -1 106 -45.5t21 -113.5q-7 -42 -34 -81.5t-50 -60.5t-68 -58 q-2 -2 -3.5 -3t-3.5 -3t-4 -3l-11 -10l95 -265l66 69zM422 632q15 42 -5 73.5t-56 31.5q-39 1 -66 -28t-32 -70q0 -23 -1 -32.5t2.5 -25.5t5.5 -22.5t7.5 -22t8.5 -25.5l10 -27l30 24q72 57 96 124zM361 104l-105 273l-21 -23q-53 -58 -74.5 -108t-4.5 -111q11 -42 42 -61.5 t66.5 -15.5t66.5 26z" glyph-name="ampersand" horiz-adv-x="552"/>
<glyph unicode="&apos;" d="M250 796l-45 -236h-61l27 236h79z" glyph-name="quotesingle" horiz-adv-x="179"/>
<glyph unicode="(" d="M359 821l-34 -49q-121 -171 -154 -376q-17 -111 -9 -198t42 -182l18 -49l-56 -23l-17 42q-74 182 -36 415q21 122 61 213t113 198l23 32z" glyph-name="parenleft" horiz-adv-x="283"/>
<glyph unicode=")" d="M285 385q-20 -121 -60.5 -213t-113.5 -197l-23 -34l-49 24l35 50q120 173 153 376q17 110 9 197.5t-43 182.5l-18 48l56 23l18 -42q75 -184 36 -415z" glyph-name="parenright" horiz-adv-x="275"/>
<glyph unicode="*" d="M528 755l-160 -49l73 -128l-38 -25l-73 128l-112 -128l-31 25l112 127l-141 51l19 39l142 -49l24 157h43l-25 -157l160 49z" glyph-name="asterisk" horiz-adv-x="468"/>
<glyph unicode="+" d="M529 389l-9 -54h-191l-29 -190h-51l29 190h-189l9 54h189l30 191h51l-29 -191h190z" glyph-name="plus" horiz-adv-x="528"/>
<glyph unicode="," d="M201 31l-142 -236l-47 25l121 246z" glyph-name="comma" horiz-adv-x="247"/>
<glyph unicode="-" d="M284 403l-14 -87h-168l14 87h168z" glyph-name="hyphen" horiz-adv-x="273"/>
<glyph unicode="." d="M168 54q-2 -25 -20 -41t-43 -16q-19 0 -32 16.5t-11 37.5q3 23 21 39t39 16q20 0 34 -16t12 -36z" glyph-name="period" horiz-adv-x="216"/>
<glyph unicode="/" d="M643 850l-558 -946l-47 29l557 942z" glyph-name="slash" horiz-adv-x="566"/>
<glyph unicode="0" d="M472 417q-16 -118 -37 -196.5t-67 -151.5q-27 -44 -73 -65.5t-91.5 -13.5t-71.5 44q-38 54 -39 152t19 191q10 61 18 99.5t23 96t37 103t51 78.5q42 50 118.5 50.5t102.5 -55.5q16 -38 24.5 -71.5t8 -71.5t-2.5 -58.5t-10 -67t-10 -63.5zM402 419q6 41 9.5 68.5t7 70.5 t0 71.5t-11.5 56.5t-26.5 41t-46.5 10q-95 -9 -149 -355q-53 -324 50 -326q31 -1 57 23.5t42.5 59t31 88.5t21.5 95.5t15 96.5z" glyph-name="zero" horiz-adv-x="461"/>
<glyph unicode="1" d="M346 796l-125 -797h-72l115 725h-104l26 72h160z" glyph-name="one" horiz-adv-x="269"/>
<glyph unicode="2" d="M493 668q-3 -105 -57 -194l-262 -408h216l-10 -66h-326l306 482q40 68 53 123q16 62 -3 99.5t-78 33.5q-71 -6 -95 -121l-8 -36h-69l9 44q15 80 62 132t118 52q62 1 103.5 -36t40.5 -105z" glyph-name="two" horiz-adv-x="440"/>
<glyph unicode="3" d="M471 626q-14 -123 -104 -173l-13 -6l10 -7q47 -33 57.5 -90.5t-3.5 -120.5q-34 -231 -195 -236q-79 -1 -117 52.5t-23 165.5l3 14h74l-1 -12q-11 -78 5.5 -113t64.5 -37q54 -1 82 47.5t36 119.5q6 32 4 63.5t-11.5 57t-40.5 41.5t-82 16h-13l11 69h23q40 0 69.5 10 t45.5 23.5t26 35.5t13 37.5t5 39.5q2 28 2 56t-17.5 47.5t-50.5 17.5q-79 -3 -96 -111l-3 -15h-73l3 21q13 77 58 124.5t123 48.5q44 0 73 -15.5t40.5 -42t16 -60t-1.5 -68.5z" glyph-name="three" horiz-adv-x="435"/>
<glyph unicode="4" d="M453 796l-83 -518h58l-10 -66h-58l-34 -213h-72l33 213h-209l12 80l293 504h70zM374 679l-212 -401h137z" glyph-name="four" horiz-adv-x="436"/>
<glyph unicode="5" d="M470 798l-10 -66h-175l-70 -248l5 2l8 1q7 1 16 2t23.5 0.5t29.5 -3.5q38 -8 64 -34.5t35.5 -61.5t12 -77.5t-4.5 -81.5q-15 -96 -74 -167.5t-144 -74.5q-67 -3 -126 38l-10 8l31 70l15 -6q2 -1 14.5 -8.5t24 -13.5t28 -11t30.5 -4q60 5 94 53t46 120q11 71 -13 126 t-80 55q-60 0 -108 -26l-14 -8l117 416h235z" glyph-name="five" horiz-adv-x="418"/>
<glyph unicode="6" d="M435 796l-213 -371l15 8q42 20 76 20q45 -1 71.5 -40.5t29.5 -91.5t-2 -104q-13 -97 -60.5 -161t-131.5 -68q-49 -2 -82 20t-45 57t-15.5 78t6.5 82q13 68 44.5 145t51 113t56.5 101l121 212h78zM340 228q21 156 -63 158q-52 2 -80 -45t-39 -117q-4 -37 -5 -75t18.5 -66 t58.5 -25q48 3 75 52.5t35 117.5z" glyph-name="six" horiz-adv-x="429"/>
<glyph unicode="7" d="M497 796l-371 -796h-81l341 729h-226l10 67h327z" glyph-name="seven" horiz-adv-x="424"/>
<glyph unicode="8" d="M474 618q-7 -56 -28 -95t-64 -70l-14 -11l11 -8q67 -56 39 -204q-10 -48 -22 -84t-34.5 -74t-58.5 -59t-84 -22t-80 21t-43 57.5t-14.5 78.5t4.5 82q9 63 43.5 124.5t69.5 79.5l18 9l-13 12q-31 31 -37.5 73.5t1.5 87.5q9 79 60.5 137t120.5 57q149 0 125 -192zM404 616 q2 29 0.5 57t-18.5 48.5t-46 20.5q-31 -1 -52.5 -21t-31 -44t-16.5 -59q-4 -30 -5.5 -61t15 -54.5t49.5 -23.5q45 -1 71.5 39.5t33.5 97.5zM348 232q4 39 5.5 78t-16.5 69t-54 30t-63.5 -28.5t-40.5 -66.5t-20 -85q-25 -170 69 -170q92 0 120 173z" glyph-name="eight" horiz-adv-x="438"/>
<glyph unicode="9" d="M464 571q-4 -22 -10.5 -44.5t-12.5 -41.5t-15 -42.5t-15 -38.5t-17.5 -38.5t-17 -34.5t-18 -34.5t-16.5 -30.5t-16.5 -29.5t-14.5 -25.5l-122 -212h-77l213 370l-15 -7q-49 -21 -76 -20q-44 0 -71 39.5t-30.5 91.5t1.5 104q14 98 61.5 162t130.5 68q49 2 82.5 -20 t45.5 -57t16 -77.5t-6 -81.5zM389 571q4 37 5 75.5t-19 66t-59 25.5q-48 -3 -75 -52.5t-35 -118.5q-17 -157 64 -158q52 -1 80 45.5t39 116.5z" glyph-name="nine" horiz-adv-x="424"/>
<glyph unicode=":" d="M192 557q40 0 46.5 -34.5t-21.5 -59.5q-18 -15 -42 -15q-39 0 -45.5 34.5t20.5 59.5q18 15 42 15zM119 105q39 0 45 -34t-22 -57q-16 -14 -39 -14q-39 0 -45 34t22 57q16 14 39 14z" glyph-name="colon" horiz-adv-x="209"/>
<glyph unicode=";" d="M244 557q40 0 47 -36q7 -34 -21 -59q-18 -16 -43 -16q-40 0 -47 36q-7 34 21 59q18 16 43 16zM218 70l-142 -237l-51 24l123 247z" glyph-name="semicolon" horiz-adv-x="265"/>
<glyph unicode="&lt;" d="M561 542l-11 -62l-400 -206l334 -213l-9 -61l-385 247l9 49z" glyph-name="less" horiz-adv-x="531"/>
<glyph unicode="=" d="M542 399l-8 -55h-430l8 55h430zM512 209l-8 -54h-430l8 54h430z" glyph-name="equal" horiz-adv-x="527"/>
<glyph unicode="&gt;" d="M519 296l-8 -49l-462 -247l10 61l401 213l-335 206l10 62z" glyph-name="greater" horiz-adv-x="527"/>
<glyph unicode="?" d="M412 615q-8 -56 -24 -100t-52 -79t-87 -35h-10l-31 -194h-69l40 258h20q42 0 66 6t37.5 23.5t19.5 39.5t13 62q0 3 0.5 5t1 4.5t0.5 4.5q14 82 7 107q-9 32 -43 32q-42 0 -61 -34t-28 -90l-4 -23h-68l4 23q14 90 50.5 141t120.5 49q31 -1 52.5 -9.5t32 -26.5t16.5 -32.5 t4.5 -43.5t-3 -43t-5.5 -45zM205 56q-3 -25 -20.5 -41t-41.5 -16q-20 0 -33.5 17t-10.5 37q3 23 21 39t39 16q20 0 34 -16t12 -36z" glyph-name="question" horiz-adv-x="370"/>
<glyph unicode="@" d="M918 436q-31 -106 -119.5 -194t-184.5 -86q-57 0 -71 44l-3 10l-8 -7q-70 -51 -148 -47q-67 3 -98.5 58t-12.5 133q20 78 61.5 143t109 108.5t147.5 44.5q12 0 23 -1.5t19.5 -4t16.5 -6.5t13.5 -7.5t11 -9t8.5 -9t6.5 -9t4.5 -8t3 -6.5l2 -4l2 -4l23 45h60l-163 -320 q0 -1 -5 -9t-9.5 -17t-8.5 -20t-3 -21t8 -16q35 -30 91 2.5t105 100t67 133.5q31 112 -49.5 203t-214.5 94q-110 3 -205.5 -43.5t-157 -132.5t-72.5 -194q-16 -149 76 -244t237 -90q181 4 307 131l15 14h62l-28 -31q-72 -85 -169.5 -127.5t-192.5 -43.5q-179 -1 -282 117.5 t-82 279.5q16 123 90.5 220.5t183.5 149t229 50.5q99 -1 179.5 -56t115.5 -140.5t10 -172.5zM646 462q17 33 8.5 71t-38.5 52q-52 25 -117.5 -15t-118.5 -116q-29 -40 -44 -92.5t-4 -97.5t55 -55q66 -16 139 43q12 10 21.5 21.5t14 19.5t13.5 27t14 29z" glyph-name="at" horiz-adv-x="904"/>
<glyph unicode="A" d="M419 0h-83l-2 164h-167l-54 -164h-82l284 796h70zM333 229l-2 463l-140 -463h142z" glyph-name="A" horiz-adv-x="441"/>
<glyph unicode="B" d="M442 598q-13 -72 -35.5 -112.5t-66.5 -63.5l-17 -11l17 -9q36 -19 52 -48.5t14.5 -62t-6.5 -70.5q-6 -41 -13 -67.5t-22.5 -58.5t-38 -50.5t-61.5 -31.5t-91 -13h-121l126 796h83q44 0 77 -8t62.5 -28t40.5 -61t0 -101zM366 590q12 75 -6 105t-95 30h-21l-45 -274h37 q61 0 90 36.5t40 102.5zM322 217q6 34 6 58.5t-9 51t-37 40.5t-74 14h-20l-50 -310h22q34 0 59 4t42 15.5t27 21t17 30.5t9.5 34t7.5 41z" glyph-name="B" horiz-adv-x="417"/>
<glyph unicode="C" d="M486 785l-12 -81l-16 9q-36 21 -80 20q-41 -1 -74.5 -32.5t-55 -84.5t-35 -104.5t-23.5 -110.5q-5 -34 -8 -53.5t-7 -54t-3.5 -56t1.5 -51t7.5 -48t16.5 -36.5t27 -28t40 -13q44 -5 90 22l26 14l-12 -76l-20 -9q-50 -25 -102 -24q-194 8 -134 413q11 74 33.5 144 t55 130.5t79 98t98.5 39.5q56 0 97 -23z" glyph-name="C" horiz-adv-x="416"/>
<glyph unicode="D" d="M446 418q-43 -281 -115 -348q-38 -37 -83.5 -53.5t-114.5 -16.5h-80l124 796h62q91 0 115.5 -3.5t50.5 -23.5q45 -35 55 -109t-14 -242zM368 412q21 138 22 164q6 110 -59 137q-26 12 -66 12h-23l-105 -654h26q25 0 47 6.5t38.5 16t31 28t24.5 34.5t19.5 43.5t15 47 t11.5 54t9.5 54t8.5 57.5z" glyph-name="D" horiz-adv-x="431"/>
<glyph unicode="E" d="M439 796l-10 -71h-175l-45 -274h169l-11 -70h-169l-50 -310h173l-11 -71h-248l126 796h251z" glyph-name="E" horiz-adv-x="342"/>
<glyph unicode="F" d="M443 796l-10 -71h-176l-43 -274h168l-12 -70h-169l-57 -381h-76l124 796h251z" glyph-name="F" horiz-adv-x="354"/>
<glyph unicode="G" d="M507 656l-80 -30l-2 23q-2 35 -17.5 61t-46.5 25q-24 0 -44.5 -12t-35 -29t-28 -47t-22 -54t-17.5 -64t-13.5 -63t-11.5 -65q-27 -161 -24 -223q6 -118 87 -118q50 0 76 49.5t41 155.5l13 85h-106l11 70h184l-29 -182q-38 -244 -197 -250q-48 -2 -80.5 14.5t-48.5 46 t-23 69.5t-4.5 83.5t8 89.5t11.5 87q1 5 1.5 8t1 7t1.5 8q10 65 19.5 111.5t28.5 103t43.5 93.5t64.5 65t90 34q53 6 98.5 -31t49.5 -101z" glyph-name="G" horiz-adv-x="452"/>
<glyph unicode="H" d="M504 796l-126 -796h-75l65 409h-177l-64 -409h-76l128 796h76l-53 -317h177l50 317h75z" glyph-name="H" horiz-adv-x="429"/>
<glyph unicode="I" d="M282 796l-126 -796h-76l126 796h76z" glyph-name="I" horiz-adv-x="229"/>
<glyph unicode="J" d="M354 796l-100 -631q-8 -54 -12 -73t-15 -41.5t-30 -37.5q-41 -26 -82.5 -25t-71.5 17l-14 7l12 75l8 -7q42 -32 73 -24q21 5 32.5 20.5t14.5 27.5t7 39l103 653h75z" glyph-name="J" horiz-adv-x="304"/>
<glyph unicode="K" d="M511 796l-237 -378l110 -418h-80l-95 398l-63 -398h-75l126 796h75l-57 -355l216 355h80z" glyph-name="K" horiz-adv-x="406"/>
<glyph unicode="L" d="M318 71l-11 -71h-244l126 796h75l-115 -725h169z" glyph-name="L" horiz-adv-x="340"/>
<glyph unicode="M" d="M607 796l-32 -796h-75l46 657l-212 -657h-61l11 659l-177 -659h-72l240 796h65l-12 -666l215 666h64z" glyph-name="M" horiz-adv-x="604"/>
<glyph unicode="N" d="M507 796l-125 -796h-73l-101 635l-92 -635h-63l126 796h66l100 -634l94 634h68z" glyph-name="N" horiz-adv-x="430"/>
<glyph unicode="O" d="M501 404q-8 -53 -17 -96.5t-23.5 -93.5t-34 -87.5t-45 -70t-61 -50t-77.5 -17.5q-60 0 -95.5 39.5t-45 106t-7.5 131t13 135.5q13 81 30.5 144.5t47 127.5t76 100t107.5 36q37 0 65 -14.5t44 -37t25.5 -57.5t12 -67.5t0.5 -77.5t-5.5 -76.5t-9.5 -74.5zM424 399 q6 39 10 71t7 74.5t0 73.5t-11 60t-26.5 43.5t-45.5 14.5q-24 0 -44.5 -12t-35.5 -29t-28 -47t-21.5 -54.5t-17 -64t-13 -64t-10.5 -64.5q-6 -34 -8.5 -52.5t-7 -54.5t-5 -57.5t0 -52t6.5 -49t15 -36.5t25 -26.5t38 -8.5q25 0 46 12t36 28.5t28.5 47t21.5 54.5t16.5 64.5 t12.5 64t11 64.5z" glyph-name="O" horiz-adv-x="486"/>
<glyph unicode="P" d="M437 589q-9 -50 -21 -82.5t-36.5 -64t-67 -46.5t-104.5 -15h-26l-61 -381h-74l126 796h88q85 0 129 -26t50.5 -71.5t-3.5 -109.5zM360 587q31 138 -87 138h-38l-42 -274h29q20 0 36.5 2t29 7.5t21.5 9.5t16.5 14.5t11.5 15.5t8 20t5.5 20t5 23.5t4.5 23.5z" glyph-name="P" horiz-adv-x="399"/>
<glyph unicode="Q" d="M501 404q-10 -90 -41.5 -189.5t-57.5 -136.5l-7 -10l39 -89l-62 -38l-35 73l-11 -5q-34 -16 -83 -20q-59 -5 -94 33.5t-44.5 106t-7.5 133.5t13 137q9 62 21 114.5t33.5 109.5t48.5 96.5t67 64.5t89 25q26 0 48 -6.5t37 -20.5t27 -28.5t18 -39t11 -43.5t5 -51.5v-52 t-3 -56t-5 -54t-6 -53.5zM424 399q19 165 15 226q-9 112 -81 111q-27 0 -50.5 -14.5t-40 -41.5t-29 -57t-22.5 -72t-16 -74.5t-12 -75.5q-24 -177 -15 -246q14 -95 80 -93h3q27 2 36 10l9 6l-44 109l62 37l40 -81l7 13q11 22 31 100.5t27 142.5z" glyph-name="Q" horiz-adv-x="490"/>
<glyph unicode="R" d="M454 566q-14 -69 -52.5 -120.5t-99.5 -55.5l-24 -2l116 -388h-82l-106 387l-59 -387h-75l124 796h109q46 0 78.5 -11t48.5 -32.5t24.5 -42.5t8 -51.5t-3 -48.5t-7.5 -44zM381 567q4 17 6 29.5t4 33.5t-2.5 35.5t-13.5 29t-28 22.5t-46 8h-41l-44 -274h30q67 0 94.5 30.5 t40.5 85.5z" glyph-name="R" horiz-adv-x="429"/>
<glyph unicode="S" d="M478 764l-16 -96l-16 19q-33 40 -86 46q-53 7 -95 -34.5t-48 -94.5q-5 -60 19.5 -95.5t88.5 -84.5l10 -8q109 -83 92 -208q-14 -98 -73 -155t-151 -63q-64 -6 -116 29l-13 9l16 97l7 -8q58 -58 112 -55q46 2 85.5 37t52.5 99q11 54 -11.5 93.5t-79.5 81.5l-16 12 q-58 42 -82 90t-19 124q6 79 71 144t153 63q46 -1 102 -35z" glyph-name="S" horiz-adv-x="440"/>
<glyph unicode="T" d="M490 796l-11 -71h-121l-115 -725h-75l116 725h-118l11 71h313z" glyph-name="T" horiz-adv-x="424"/>
<glyph unicode="U" d="M505 796l-97 -614q-14 -85 -63.5 -137t-130.5 -53q-78 0 -114.5 47t-22.5 144l97 613h75l-97 -613q-18 -120 73 -120q49 1 74.5 35.5t32.5 83.5l97 614h76z" glyph-name="U" horiz-adv-x="425"/>
<glyph unicode="V" d="M544 796l-291 -796h-68l-28 796h77l9 -678l224 678h77z" glyph-name="V" horiz-adv-x="447"/>
<glyph unicode="W" d="M755 796l-272 -796h-69l21 663l-216 -663h-67l4 796h77l-23 -648l214 648h66l-17 -655l203 655h79z" glyph-name="W" horiz-adv-x="662"/>
<glyph unicode="X" d="M533 796l-208 -389l82 -407h-81l-54 335l-166 -335h-78l215 402l-82 394h80l49 -334l163 334h80z" glyph-name="X" horiz-adv-x="439"/>
<glyph unicode="Y" d="M529 796l-216 -445l-56 -351h-74l54 348l-80 448h81l47 -378l164 378h80z" glyph-name="Y" horiz-adv-x="437"/>
<glyph unicode="Z" d="M479 796l-336 -725h197l-11 -71h-292l334 725h-197l12 71h293z" glyph-name="Z" horiz-adv-x="381"/>
<glyph unicode="[" d="M352 842l-8 -45h-112l-130 -826h113l-8 -47h-173l145 918h173z" glyph-name="bracketleft" horiz-adv-x="272"/>
<glyph unicode="\" d="M519 -22l-61 -24l-300 856l56 23z" glyph-name="backslash" horiz-adv-x="554"/>
<glyph unicode="]" d="M351 842l-145 -918h-173l7 47h112l131 826h-112l7 45h173z" glyph-name="bracketright" horiz-adv-x="270"/>
<glyph unicode="^" d="M422 667l-55 -47l-77 81l-99 -80l-37 46l151 126z" glyph-name="asciicircum" horiz-adv-x="363"/>
<glyph unicode="_" d="M721 -165h-713v37h713v-37z" glyph-name="underscore" horiz-adv-x="664"/>
<glyph unicode="`" d="M337 651l-49 -30l-118 123l73 52z" glyph-name="grave" horiz-adv-x="285"/>
<glyph unicode="a" d="M399 543l-85 -543h-71l7 42l-14 -13q-35 -35 -82 -38q-41 -5 -64.5 22t-28.5 75t-2 94.5t12 95.5q11 60 20.5 97.5t29 84t51 69.5t74.5 23q45 0 67 -28l13 -16l4 35h69zM296 285q1 8 4 29l4.5 31.5t3.5 30.5t1.5 31t-1.5 27.5t-5.5 25.5t-10.5 18t-16.5 13.5t-23.5 4.5 q-23 0 -42 -19t-31.5 -55t-19.5 -66.5t-15 -73.5q-10 -54 -14 -94.5t-1.5 -74t16 -50.5t38.5 -15q27 2 48 25t33.5 64t19 73t12.5 75z" glyph-name="a"/>
<glyph unicode="b" d="M399 278q-5 -42 -9.5 -68t-13.5 -66t-21.5 -64.5t-29.5 -48.5t-42.5 -34t-56.5 -6q-46 5 -70 38l-10 13l-6 -42h-71l133 848h69l-53 -340l18 16q31 28 75 28q29 0 49.5 -11.5t30.5 -35t15 -47.5t3.5 -60t-3.5 -60t-7 -60zM328 282q31 214 -40 214q-13 0 -24.5 -4 t-20.5 -13t-16 -17t-13.5 -25t-10 -26.5t-8 -31t-6.5 -30.5t-6 -33t-5 -31q-5 -30 -8 -48.5t-6.5 -50t-2 -52t6 -41.5t16.5 -32.5t31 -12.5q47 -3 73 58.5t40 175.5z" glyph-name="b"/>
<glyph unicode="c" d="M365 524l-11 -77l-9 9q-20 25 -52 27q-46 3 -81 -60t-47 -141q-35 -224 56 -227q16 0 34.5 10t28.5 20l11 10l-12 -79l-12 -8q-33 -19 -70 -19q-42 1 -70 29t-38 72.5t-10 92.5t9 95q10 52 26 97.5t40 86t58.5 64t76.5 23.5q39 0 63 -18z" glyph-name="c" horiz-adv-x="332"/>
<glyph unicode="d" d="M445 848l-133 -848h-72l6 42l-13 -13q-36 -35 -82 -38q-41 -5 -64.5 22t-28 75.5t-2 94t11.5 95.5q11 60 20.5 97.5t29 84t51 69.5t74.5 23q45 0 67 -28l12 -16l54 340h69zM293 285q1 9 3.5 29t4 31.5t3.5 30.5t1.5 31t-1.5 27.5t-5.5 25t-10.5 18.5t-16 13.5t-23 4.5 q-23 0 -41.5 -19t-31.5 -56t-20 -65.5t-15 -73.5q-10 -55 -13.5 -94.5t-1.5 -73.5t15.5 -51t38.5 -15q81 4 113 237z" glyph-name="d"/>
<glyph unicode="e" d="M390 285l-7 -32h-225l-2 -10q-32 -189 54 -189q31 -1 53.5 33t30.5 79l2 16h74l-3 -16q-14 -69 -55 -121.5t-107 -55.5q-39 -2 -66 16t-39.5 46.5t-16.5 68.5t-2 75.5t8 75.5q10 71 32.5 130.5t65 103.5t98.5 44q53 0 82 -44t30 -102.5t-7 -117.5zM325 336q3 33 3 50 t-2.5 43.5t-15 39.5t-34.5 14q-33 2 -65.5 -50t-39.5 -104l-3 -16h155z" glyph-name="e" horiz-adv-x="397"/>
<glyph unicode="f" d="M405 844l-12 -75l-8 4q-21 18 -54 15q-21 -2 -32 -37t-21 -99l-18 -110h93l-11 -65h-92l-75 -477h-70l76 477h-56l11 65h55l18 110q6 39 11.5 64t16 55.5t27 49.5t39.5 27q40 13 90 0z" glyph-name="f" horiz-adv-x="318"/>
<glyph unicode="g" d="M408 543l-88 -564q-16 -110 -66 -164q-37 -37 -107.5 -38.5t-107.5 47.5q-16 24 -17 53.5t5 59.5l2 12h68l-1 -14q-3 -60 10 -76.5t50 -16.5q72 1 97 155l4 33l-11 -9q-36 -27 -83 -27q-43 0 -68 26.5t-30.5 72t-3 88t10.5 92.5q7 43 15 77.5t22.5 73t33.5 64.5 t47.5 42.5t63.5 16.5q44 0 66 -27l13 -17l6 40h69zM303 280q1 9 3.5 28.5t4 31.5t3.5 31t1.5 31t-1.5 27.5t-5.5 25t-10.5 18.5t-16 13.5t-23 4.5q-44 1 -72 -62.5t-42 -151.5q-20 -101 -9.5 -165t55.5 -61q20 1 36 12t27 31.5t19 39t14 49.5t9 48.5t7 48.5z" glyph-name="g"/>
<glyph unicode="h" d="M390 399l-64 -399h-68l63 398q18 99 -48 98q-76 -1 -99 -133l-56 -363h-70l133 848h70l-54 -342l17 12q35 25 64 31q73 17 106 -28q7 -10 10.5 -24.5t3 -30.5t-1.5 -27.5t-3.5 -25t-2.5 -14.5z" glyph-name="h" horiz-adv-x="375"/>
<glyph unicode="i" d="M246 754q37 0 43.5 -33t-20.5 -56q-17 -14 -39 -14q-37 0 -43.5 33t20.5 56q17 14 39 14zM246 543l-86 -543h-70l86 543h70z" glyph-name="i" horiz-adv-x="256"/>
<glyph unicode="j" d="M250 754q37 0 43 -33t-21 -56q-17 -14 -39 -14q-37 0 -43 33t21 56q17 14 39 14zM249 543l-118 -747h-69l118 747h69z" glyph-name="j" horiz-adv-x="245"/>
<glyph unicode="k" d="M445 543l-200 -244l153 -299h-85l-125 257l-42 -257h-70l135 848h70l-83 -522l167 217h80z" glyph-name="k" horiz-adv-x="424"/>
<glyph unicode="l" d="M284 848l-134 -848h-70l135 848h69z" glyph-name="l" horiz-adv-x="230"/>
<glyph unicode="m" d="M598 377l-60 -377h-69l59 377q0 3 2.5 16t3 17t1.5 15.5t0.5 17t-1.5 14.5t-4.5 13.5t-7.5 10t-11 9t-16 4.5q-49 9 -76.5 -35t-36.5 -110l-56 -349h-69l56 349q0 3 4.5 27t5.5 37.5t0 33.5t-10 32t-26 15q-32 7 -58 -14.5t-39.5 -53.5t-19.5 -70l-54 -356h-70l85 543h69 l-7 -43l8 7q36 29 62 38q46 16 91 -2q24 -12 37 -41l5 -10l7 6q44 39 63 46q33 12 69.5 7t51.5 -22q14 -18 18 -46.5t2 -45.5t-9 -60z" glyph-name="m" horiz-adv-x="590"/>
<glyph unicode="n" d="M388 349l-55 -349h-69l55 349q1 4 4.5 22.5t5.5 30t2.5 30t-2.5 30t-11.5 22t-22.5 13.5q-49 11 -78.5 -32t-39.5 -109l-55 -356h-69l84 543h69l-6 -43l9 7q30 28 62 38q23 8 48 7.5t42 -8.5q16 -7 25.5 -20.5t13 -26t3 -35t-2 -35.5t-6.5 -40.5t-6 -37.5z" glyph-name="n" horiz-adv-x="382"/>
<glyph unicode="o" d="M402 275q-41 -284 -198 -285q-38 -1 -64.5 17.5t-39 46.5t-16.5 67.5t-2 75t8 74.5q8 54 22 100t37 88.5t59 67t81 24.5q151 0 113 -276zM329 275q4 28 5.5 45t3.5 45t-1 45.5t-8.5 36.5t-18 28t-30.5 10q-25 1 -45.5 -18.5t-35 -53.5t-23.5 -70t-15 -75 q-30 -211 52 -213q26 0 46.5 20t34 55t21.5 69.5t14 75.5z" glyph-name="o" horiz-adv-x="412"/>
<glyph unicode="p" d="M400 271q-11 -60 -20.5 -98t-29 -84.5t-51 -69.5t-74.5 -23q-45 0 -66 28l-13 16l-39 -244h-69l120 747h71l-8 -36l14 13q32 31 82 38q41 5 64.5 -22.5t28.5 -75.5t2 -94t-12 -95zM327 267q10 54 14 94t1.5 74t-16 51t-38.5 15q-27 -2 -47.5 -25t-33 -64t-19 -73 t-12.5 -76q-1 -8 -4 -29l-4.5 -31.5t-3.5 -30.5t-1.5 -31.5t1.5 -27.5t5.5 -25t10.5 -18t16 -13.5t23 -4.5q23 0 42 19t31.5 55t20 67t14.5 74z" glyph-name="p"/>
<glyph unicode="q" d="M399 543l-117 -747h-71l38 244l-18 -16q-32 -28 -74 -28q-25 0 -44 9.5t-30 24.5t-17 39.5t-8 46t-0.5 52.5t4 52t6.5 51q6 42 10 68t13 66t21.5 64.5t30 48.5t42.5 34t57 6q48 -7 70 -38l9 -13l6 36h72zM290 263q5 32 7.5 49t6.5 50t2 52t-6 41t-16.5 33.5t-30.5 12.5 q-47 3 -73 -58t-41 -176q-4 -27 -5.5 -45.5t-3.5 -47t0 -47.5t7 -37.5t15.5 -28t26.5 -9.5q22 0 39 12.5t27 28t19 45.5t12.5 48t9.5 54q3 16 4 23z" glyph-name="q"/>
<glyph unicode="r" d="M316 547l-13 -83l-10 1q-26 5 -56 -16q-15 -10 -30.5 -46.5t-22.5 -81.5l-51 -321h-70l85 543h70l-11 -76l7 8q5 5 17.5 21t20.5 24q25 23 51 25z" glyph-name="r" horiz-adv-x="262"/>
<glyph unicode="s" d="M357 520l-14 -90l-11 13q-14 17 -20.5 24t-20 14t-28.5 6q-65 -4 -81 -69q-2 -8 -2 -15t2 -14.5t3.5 -13.5t6.5 -13t7.5 -11.5t9.5 -12t10 -10.5t10.5 -11t9.5 -10l10 -10q3 -3 15.5 -16t15.5 -17t11.5 -14.5t11.5 -17.5t6.5 -18.5t4.5 -23.5q9 -72 -36.5 -131 t-115.5 -66q-55 -5 -100 27l-14 9l13 80l10 -10q1 -1 8.5 -8t9 -8.5t8 -7.5t9.5 -7t9 -4.5t10 -4.5t10 -2t12 0q81 6 95 88q3 5 1 14t-1 13t-3.5 12.5t-5 11.5t-6 10.5t-7.5 10.5t-8.5 10t-8.5 9.5t-8.5 9.5t-8.5 9l-12 12q-20 21 -32 36.5t-23 42.5t-10 53q4 64 40.5 104 t95.5 47q54 7 99 -22z" glyph-name="s" horiz-adv-x="342"/>
<glyph unicode="t" d="M355 543l-10 -66h-88l-75 -477h-70l76 477h-58l10 66h58l23 145h70l-24 -145h88z" glyph-name="t" horiz-adv-x="322"/>
<glyph unicode="u" d="M420 543l-66 -411q-11 -73 -58 -107.5t-100 -33.5q-145 0 -122 146l63 406h70l-58 -365q-19 -121 52 -123q41 -1 61.5 33t29.5 90l58 365h70z" glyph-name="u" horiz-adv-x="380"/>
<glyph unicode="v" d="M435 543l-205 -543h-74l-37 543h70l20 -443l154 443h72z" glyph-name="v" horiz-adv-x="388"/>
<glyph unicode="w" d="M627 543l-203 -543h-71v449l-137 -449h-70l-27 543h70l7 -443l139 443h72l-3 -442l152 442h71z" glyph-name="w" horiz-adv-x="576"/>
<glyph unicode="x" d="M441 543l-165 -265l75 -278h-76l-48 235l-122 -235h-77l171 281l-69 262h79l39 -229l115 229h78z" glyph-name="x" horiz-adv-x="377"/>
<glyph unicode="y" d="M447 543l-309 -747h-71l88 223l-40 524h70l18 -436l170 436h74z" glyph-name="y" horiz-adv-x="394"/>
<glyph unicode="z" d="M429 543l-295 -479h180l-8 -64h-281l288 479h-181l10 64h287z" glyph-name="z" horiz-adv-x="381"/>
<glyph unicode="{" d="M422 832l-6 -38h-12q-38 0 -65 -24q-25 -23 -31 -68l-25 -160q-12 -68 -37 -102q-16 -22 -50 -38l-18 -9l17 -9q15 -7 31 -27q22 -31 8 -102l-26 -168q-9 -50 12 -74q20 -24 56 -24h12l-5 -38h-13q-27 0 -42.5 1.5t-34 9.5t-31.5 24q-28 34 -13 120l26 165q1 4 2 12 t1.5 11.5t1 10t0 10.5t-2 10t-4.5 11q-18 28 -52 34l-15 4l6 38l17 4q37 9 61 31q18 18 25 60l29 190q11 69 43 99q38 36 116 36h19z" glyph-name="braceleft" horiz-adv-x="342"/>
<glyph unicode="|" d="M244 798l-158 -1001h-70l158 1001h70z" glyph-name="bar" horiz-adv-x="173"/>
<glyph unicode="}" d="M357 415l-5 -38l-17 -4q-36 -7 -62 -34q-15 -17 -24 -66l-26 -164q-15 -90 -51 -120q-25 -22 -51 -29t-67 -7h-13l6 38h12q36 0 64 25q28 23 36 74l27 167q10 73 41 103q21 20 39 26l19 10l-15 8q-28 16 -38 39q-14 36 -4 102l26 160q6 47 -10 66q-18 26 -57 26h-13l6 37 h19q25 0 40 -1.5t34 -9.5t31 -24q22 -31 11 -99l-30 -191q-8 -41 6 -59q16 -23 50 -31z" glyph-name="braceright" horiz-adv-x="346"/>
<glyph unicode="~" d="M507 771l-17 -19q-44 -47 -82 -49q-30 -1 -77 21t-73 22q-12 0 -21.5 -4t-15 -9t-15.5 -16t-15 -16l-9 -8l-23 29l10 12q25 29 44 43.5t48 17.5q30 2 81 -22t72 -23q9 1 20 6.5t17.5 11t14.5 12.5l7 8l10 12z" glyph-name="asciitilde" horiz-adv-x="433"/>
<glyph unicode=" " glyph-name="nbspace" horiz-adv-x="340"/>
<glyph unicode="¡" d="M237 550q-2 -24 -20.5 -40.5t-43.5 -16.5q-20 1 -33 18.5t-9 37.5q4 22 20.5 37t38.5 16q20 1 34.5 -15.5t12.5 -36.5zM197 390l-93 -593h-72l93 593h72z" glyph-name="exclamdown" horiz-adv-x="201"/>
<glyph unicode="¢" d="M390 684l-12 -79l-13 13l-4 4q-4 3 -7.5 6t-9 6t-13.5 5t-16 2q-84 -1 -126 -201q-20 -109 -3.5 -167.5t58.5 -60.5q7 0 13 1t11.5 3t11 5t9 6t8 7t6.5 6t5.5 6t3.5 5l9 9l-15 -88q-13 -12 -27 -19q-6 -3 -13.5 -5t-11.5 -2h-4l-16 -102h-54l17 104l-11 6 q-37 17 -57 48.5t-23.5 74t-0.5 79t12 82.5q42 220 156 259l14 4l15 95h52l-14 -93l4 -1q14 -1 24 -6l18 -9z" glyph-name="cent" horiz-adv-x="332"/>
<glyph unicode="£" d="M505 639l-4 -11l-73 -13l2 13q6 40 -9 72t-56 39q-53 9 -89 -26.5t-49 -101.5q-4 -17 -5.5 -30.5t0 -29.5t2 -24.5t7.5 -29.5t10 -29t15 -38t17 -43l5 -13h126l-8 -51h-99l2 -10q8 -37 4 -74q-4 -36 -24.5 -77t-34.5 -53l-7 -6l6 -5q58 -52 82 -49q16 1 28 18t15 31l3 14 l59 -19l-3 -10q-10 -41 -44.5 -74.5t-76.5 -29.5q-31 2 -56 18t-44 34t-33 21q-16 4 -29 -2.5t-19 -14t-18 -24.5l-4 -7l-54 36l7 11l4 5q5 6 11 13t13.5 15.5t16.5 16.5t17 12q31 16 56 12l8 -2l6 9q33 36 41 92q9 39 -12 93l-2 6h-111l9 51h82l-4 9q-5 18 -14 43.5 t-13.5 39t-10 38t-5 40t2.5 45.5q10 76 51.5 135t111.5 77q98 25 154 -33q24 -26 33.5 -68t3.5 -61z" glyph-name="sterling" horiz-adv-x="468"/>
<glyph unicode="¥" d="M529 796l-203 -418h152l-9 -55h-160l-14 -87h153l-9 -54h-153l-29 -182h-74l28 182h-149l8 54h149l14 87h-142l9 55h131l-74 418h81l47 -378l164 378h80z" glyph-name="yen" horiz-adv-x="413"/>
<glyph unicode="§" d="M465 670h-67l-2 18q0 19 -14.5 35.5t-39.5 19.5q-47 5 -75 -25.5t-33 -73.5q-2 -25 2 -42t21.5 -33.5t28.5 -24t45 -28.5l9 -5q46 -28 70.5 -74t17.5 -97q-12 -87 -42 -137.5t-83 -77.5l-8 -5l8 -7q18 -17 28 -30.5t17 -42t1 -65.5q-10 -66 -60.5 -112.5t-114.5 -42.5 q-39 2 -66 18t-37 37.5t-13.5 38.5t-1.5 27l4 24h66v-16q-3 -64 50 -68q46 -4 77 25.5t35 71.5q5 47 -16.5 72.5t-77.5 54.5l-17 11q-103 59 -86 180q10 75 48.5 127.5t94.5 69.5l18 5l-10 6q-43 26 -61 58.5t-10 83.5q10 67 58.5 113.5t116.5 45.5q35 -1 60.5 -15t37 -34.5 t16 -36t5.5 -27.5v-22zM355 298q5 31 6 65.5t-18.5 62t-57.5 28.5q-50 1 -83 -42.5t-42 -102.5q-10 -74 18 -112t67 -39q47 -1 71.5 37.5t38.5 102.5z" glyph-name="section" horiz-adv-x="425"/>
<glyph unicode="¨" d="M450 723q-4 -23 -22.5 -39.5t-41.5 -16.5t-37.5 16.5t-10.5 39.5q3 23 21.5 39.5t41.5 16.5t37.5 -16.5t11.5 -39.5zM271 723q-4 -23 -22.5 -39.5t-41.5 -16.5t-37.5 16.5t-10.5 39.5q3 23 21.5 39.5t41.5 16.5t37.5 -16.5t11.5 -39.5z" glyph-name="dieresis" horiz-adv-x="393"/>
<glyph unicode="©" d="M563 790q193 0 280 -132q74 -111 47.5 -264.5t-137.5 -260.5q-128 -123 -313 -123q-192 0 -280 132q-73 111 -47 264q27 154 138 261q128 123 312 123zM557 748q-182 0 -300 -131q-95 -106 -107 -246q-11 -142 70 -231q81 -88 227 -88q182 0 299 131q95 106 107 246 q12 142 -69 231q-81 88 -227 88zM704 495h-46l-1 15q-4 45 -38.5 69.5t-82.5 24.5q-83 -3 -131.5 -62t-61.5 -144q-8 -37 -6 -71.5t12 -62t38.5 -46.5t73.5 -24q51 -6 102 32t71 95h47q-26 -77 -89.5 -123.5t-140.5 -41.5q-52 3 -87.5 24.5t-50.5 54.5t-19.5 75t4.5 87 q15 101 81.5 176t163.5 73q69 -2 114 -36.5t46 -96.5z" glyph-name="copyright" horiz-adv-x="881"/>
<glyph unicode="ª" d="M353 794l-53 -336h-43l3 26l-8 -8q-20 -20 -51 -24q-25 -3 -39.5 14t-17.5 46.5t-1.5 58.5t7.5 59q5 29 9.5 47.5t13 44t19 40.5t27.5 26t39 11q28 0 41 -17l8 -10l3 22h43zM289 634q1 5 2.5 18t2.5 19.5t2.5 19t1 19.5t-1 17t-3 15.5t-6.5 11.5t-10.5 8.5t-14.5 2.5 q-27 0 -42 -37t-25 -96q-14 -62 -9.5 -104.5t33.5 -39.5q52 3 70 146zM299 399h-162l-5 -25h162z" glyph-name="ordfeminine" horiz-adv-x="284"/>
<glyph unicode="«" d="M646 532l-17 -110l-180 -116l140 -112l-18 -117l-197 175l18 112zM361 532l-18 -110l-180 -116l141 -112l-19 -117l-196 175l17 112z" glyph-name="guillemotleft" horiz-adv-x="615"/>
<glyph unicode="¬" d="M885 332l-52 -332h-64l43 272h-716l9 60h780z" glyph-name="logicalnot" horiz-adv-x="887"/>
<glyph unicode="®" d="M560 790q192 0 280 -132q73 -111 47 -264q-27 -154 -138 -261q-128 -123 -312 -123q-193 0 -280 132q-74 111 -47.5 264.5t137.5 260.5q128 123 313 123zM553 748q-182 0 -299 -131q-95 -106 -107 -246q-12 -142 69 -231q81 -88 227 -88q182 0 300 131q95 106 107 246 q11 142 -70 231q-81 88 -227 88zM701 507q-8 -83 -97 -117q2 -1 7 -4l7.5 -4.5t6 -4t5.5 -5t5 -5.5t5 -6.5t4 -8.5q11 -25 0 -83t-5 -91q1 -4 3.5 -9t3.5 -9h-48q-3 0 -4 1q-5 21 -2.5 51.5t8 58t0.5 53.5t-25 38q-6 4 -12 6t-14 3t-12.5 1h-15.5h-15h-124l-34 -212h-46 l75 469h172q34 0 59.5 -4.5t49.5 -17t35 -38t8 -62.5zM655 501q5 50 -25 69.5t-81 19.5h-133l-28 -178h131q125 0 136 89z" glyph-name="registered" horiz-adv-x="880"/>
<glyph unicode="°" d="M323 729q0 -36 -26.5 -65.5t-68.5 -29.5q-35 0 -52.5 19.5t-16.5 48.5q1 36 27 64.5t68 28.5q33 0 51 -19t18 -47zM289 722q1 17 -9.5 29t-31.5 12q-24 0 -39 -16.5t-16 -37.5q-1 -17 9.5 -28.5t30.5 -11.5q25 0 40 16.5t16 36.5z" glyph-name="degree" horiz-adv-x="260"/>
<glyph unicode="±" d="M536 373l-8 -53h-192l-30 -191h-49l29 191h-189l9 54h189l31 191h51l-31 -192h190zM479 40l-6 -42h-435l6 42h435z" glyph-name="plusminus" horiz-adv-x="528"/>
<glyph unicode="´" d="M344 744l-157 -123l-40 30l139 145z" glyph-name="acute" horiz-adv-x="274"/>
<glyph unicode="µ" d="M668 111l-13 -35q-16 -44 -65 -73t-84 -24q-36 5 -60.5 37.5t-20.5 73.5l-33 -29q-40 -34 -83 -56.5t-71 -22.5q-28 1 -63.5 18.5t-53.5 47.5l-6 -40q-5 -35 6 -87t5 -95q-5 -28 -24 -50t-44 -21q-23 1 -34.5 20t-8.5 45q5 39 28 82t29 66q4 15 7 31l88 557h94l-60 -383 q-8 -47 15 -83.5t67 -35.5q46 1 98 37t59 81l62 384h91l-69 -433q-5 -37 9 -66.5t45 -23.5q37 6 56 48l13 30h21z" glyph-name="mu" horiz-adv-x="697"/>
<glyph unicode="¶" d="M575 796l-160 -999h-55l150 950h-79l-150 -950h-52l101 635l-36 3q-81 5 -122.5 56.5t-31.5 122.5q13 87 70 134.5t158 47.5h207z" glyph-name="paragraph" horiz-adv-x="504"/>
<glyph unicode="·" d="M229 397q-2 -24 -20 -40.5t-43 -16.5q-19 0 -32.5 17t-11.5 38q4 22 22.5 38.5t38.5 16.5t34 -16t12 -37z" glyph-name="periodcentered" horiz-adv-x="216"/>
<glyph unicode="º" d="M262 404l-5 -25h-147l5 25h147zM313 630q-26 -174 -121 -174q-38 0 -56.5 28.5t-17.5 66.5t4 76q28 171 122 171q93 0 69 -168zM269 630q2 19 3 27.5t2 27t-0.5 28t-5 21.5t-11 17.5t-18.5 5.5q-29 1 -47.5 -39t-25.5 -93q-18 -128 32 -130q50 0 71 135z" glyph-name="ordmasculine" horiz-adv-x="261"/>
<glyph unicode="»" d="M618 364l-18 -112l-251 -175l18 117l175 112l-143 116l18 110zM332 364l-18 -112l-251 -175l18 117l176 112l-143 116l18 110z" glyph-name="guillemotright" horiz-adv-x="618"/>
<glyph unicode="¿" d="M361 558q-3 -23 -21 -39t-39 -16q-20 0 -33.5 15.5t-11.5 35.5q2 25 19.5 41.5t42.5 15.5q19 0 32.5 -16.5t10.5 -36.5zM321 403l-40 -257h-20q-79 0 -100.5 -25.5t-35.5 -108.5q-1 -8 -2 -12q-12 -78 -8 -101q7 -38 44 -38q42 0 61 34t28 91l4 23h68l-4 -23 q-6 -43 -16 -73.5t-28.5 -59.5t-50 -43.5t-76.5 -13.5q-26 1 -45.5 8.5t-31.5 17t-18 28t-8.5 32t-1 38t3 37t5.5 38.5q5 40 16 75t29 68t48 52.5t69 19.5h10l31 193h69z" glyph-name="questiondown" horiz-adv-x="374"/>
<glyph unicode="À" d="M414 0h-83l-2 164h-167l-54 -164h-82l285 796h70zM328 229l-2 463l-139 -463h141zM447 884l-49 -30l-118 124l74 51z" glyph-name="Agrave" horiz-adv-x="441"/>
<glyph unicode="Á" d="M419 0h-83l-2 164h-167l-54 -164h-82l284 796h70zM333 229l-2 463l-140 -463h142zM456 979l-157 -123l-40 30l139 145z" glyph-name="Aacute" horiz-adv-x="465"/>
<glyph unicode="Â" d="M419 0h-83l-2 164h-167l-54 -164h-82l284 796h70zM333 229l-2 463l-140 -463h142zM506 902l-55 -47l-77 81l-99 -80l-37 46l151 126z" glyph-name="Acircumflex" horiz-adv-x="465"/>
<glyph unicode="Ã" d="M419 0h-83l-2 164h-167l-54 -164h-82l284 796h70zM333 229l-2 463l-140 -463h142zM516 925l-15 -16q-35 -40 -71 -42q-25 -1 -66 18t-63 19q-13 0 -22 -4.5t-20.5 -17.5t-15.5 -17l-8 -7l-20 24l9 12q41 48 80 52q26 2 70 -18.5t62 -20.5q10 1 21 8t20 16t10 9l8 11z" glyph-name="Atilde" horiz-adv-x="452"/>
<glyph unicode="Ä" d="M419 0h-83l-2 164h-167l-54 -164h-82l284 796h70zM333 229l-2 463l-140 -463h142zM506 911q-4 -23 -22.5 -39.5t-41.5 -16.5t-37.5 16.5t-10.5 39.5q3 23 21.5 39.5t41.5 16.5t37.5 -16.5t11.5 -39.5zM327 911q-4 -23 -22.5 -39.5t-41.5 -16.5t-37.5 16.5t-10.5 39.5 q3 23 21.5 39.5t41.5 16.5t37.5 -16.5t11.5 -39.5z" glyph-name="Adieresis" horiz-adv-x="453"/>
<glyph unicode="Å" d="M419 0h-83l-2 164h-167l-54 -164h-82l284 796h70zM333 229l-2 463l-140 -463h142zM442 951q0 -35 -26 -64.5t-69 -29.5q-34 0 -52 20t-17 48q1 36 27 64.5t68 28.5q34 0 51.5 -19.5t17.5 -47.5zM409 945q1 17 -10 29t-31 12q-25 0 -40 -17t-15 -37q-1 -17 9.5 -28.5 t30.5 -11.5q24 0 39.5 16.5t16.5 36.5z" glyph-name="Aring" horiz-adv-x="455"/>
<glyph unicode="Æ" d="M718 796l-10 -65h-175l-45 -280h169l-11 -70h-169l-50 -310h173l-11 -71l-242 -1l24 161h-168l-80 -160h-82l414 796h263zM453 688l-214 -463h143z" glyph-name="AE" horiz-adv-x="650"/>
<glyph unicode="Ç" d="M480 782l-12 -81l-16 9q-36 21 -80 20q-41 0 -74.5 -31.5t-55 -84.5t-35 -105t-22.5 -111q-6 -38 -9.5 -61.5t-7 -62t-3 -63t5 -55t15 -49t28.5 -32.5t44 -17q15 -2 42 4t49 18l25 14l-12 -76l-20 -9q-53 -25 -101 -24q-194 9 -135 413q14 100 48 190t92 155t126 67 q54 2 97 -23zM267 -69l-100 -166l-33 19l84 171z" glyph-name="Ccedilla" horiz-adv-x="418"/>
<glyph unicode="È" d="M439 796l-10 -71h-175l-45 -274h169l-11 -70h-169l-50 -310h173l-11 -71h-248l126 796h251zM438 886l-49 -30l-118 123l73 52z" glyph-name="Egrave" horiz-adv-x="372"/>
<glyph unicode="É" d="M427 796l-10 -71h-175l-45 -274h169l-12 -70h-168l-50 -310h173l-11 -71h-249l126 796h252zM415 979l-158 -123l-39 30l139 145z" glyph-name="Eacute" horiz-adv-x="349"/>
<glyph unicode="Ê" d="M439 796l-10 -71h-175l-45 -274h169l-11 -70h-169l-50 -310h173l-11 -71h-248l126 796h251zM467 902l-55 -47l-77 81l-99 -80l-37 46l151 126z" glyph-name="Ecircumflex" horiz-adv-x="372"/>
<glyph unicode="Ë" d="M439 796l-10 -71h-175l-45 -274h169l-11 -70h-169l-50 -310h173l-11 -71h-248l126 796h251zM484 908q-4 -23 -22.5 -39.5t-41.5 -16.5t-37.5 16.5t-10.5 39.5q3 23 21.5 39.5t41.5 16.5t37.5 -16.5t11.5 -39.5zM305 908q-4 -23 -22.5 -39.5t-41.5 -16.5t-37.5 16.5 t-10.5 39.5q3 23 21.5 39.5t41.5 16.5t37.5 -16.5t11.5 -39.5z" glyph-name="Edieresis" horiz-adv-x="383"/>
<glyph unicode="Ì" d="M282 796l-126 -796h-76l126 796h76zM348 886l-49 -30l-118 123l73 52z" glyph-name="Igrave" horiz-adv-x="256"/>
<glyph unicode="Í" d="M282 796l-126 -796h-76l126 796h76zM378 979l-157 -123l-40 30l139 145z" glyph-name="Iacute" horiz-adv-x="255"/>
<glyph unicode="Î" d="M282 796l-126 -796h-76l126 796h76zM411 902l-55 -47l-77 81l-99 -80l-37 46l151 126z" glyph-name="Icircumflex" horiz-adv-x="255"/>
<glyph unicode="Ï" d="M282 796l-126 -796h-76l126 796h76zM416 908q-4 -23 -22.5 -39.5t-41.5 -16.5t-37.5 16.5t-10.5 39.5q3 23 21.5 39.5t41.5 16.5t37.5 -16.5t11.5 -39.5zM237 908q-4 -23 -22.5 -39.5t-41.5 -16.5t-37.5 16.5t-10.5 39.5q3 23 21.5 39.5t41.5 16.5t37.5 -16.5t11.5 -39.5 z" glyph-name="Idieresis" horiz-adv-x="255"/>
<glyph unicode="Ñ" d="M507 926l-14 -17q-35 -40 -71 -42q-26 -1 -67 18t-64 19q-13 0 -22 -4.5t-21 -18t-16 -16.5l-8 -8l-21 25l10 12q41 48 81 53q25 2 69.5 -19t63.5 -20q20 1 52 33l8 10zM507 796l-125 -796h-73l-101 635l-92 -635h-63l126 796h66l100 -634l94 634h68z" glyph-name="Ntilde" horiz-adv-x="447"/>
<glyph unicode="Ò" d="M501 404q-8 -53 -17 -96.5t-23.5 -93.5t-34 -87.5t-45 -70t-61 -50t-77.5 -17.5q-60 0 -95.5 39.5t-45 106t-7.5 131t13 135.5q13 81 30.5 144.5t47 127.5t76 100t107.5 36q37 0 65 -14.5t44 -37t25.5 -57.5t12 -67.5t0.5 -77.5t-5.5 -76.5t-9.5 -74.5zM424 399 q6 39 10 71t7 74.5t0 73.5t-11 60t-26.5 43.5t-45.5 14.5q-24 0 -44.5 -12t-35.5 -29t-28 -47t-21.5 -54.5t-17 -64t-13 -64t-10.5 -64.5q-6 -34 -8.5 -52.5t-7 -54.5t-5 -57.5t0 -52t6.5 -49t15 -36.5t25 -26.5t38 -8.5q25 0 46 12t36 28.5t28.5 47t21.5 54.5t16.5 64.5 t12.5 64t11 64.5zM483 886l-49 -30l-118 123l73 52z" glyph-name="Ograve" horiz-adv-x="490"/>
<glyph unicode="Ó" d="M501 404q-8 -53 -17 -96.5t-23.5 -93.5t-34 -87.5t-45 -70t-61 -50t-77.5 -17.5q-60 0 -95.5 39.5t-45 106t-7.5 131t13 135.5q13 81 30.5 144.5t47 127.5t76 100t107.5 36q37 0 65 -14.5t44 -37t25.5 -57.5t12 -67.5t0.5 -77.5t-5.5 -76.5t-9.5 -74.5zM424 399 q6 39 10 71t7 74.5t0 73.5t-11 60t-26.5 43.5t-45.5 14.5q-24 0 -44.5 -12t-35.5 -29t-28 -47t-21.5 -54.5t-17 -64t-13 -64t-10.5 -64.5q-6 -34 -8.5 -52.5t-7 -54.5t-5 -57.5t0 -52t6.5 -49t15 -36.5t25 -26.5t38 -8.5q25 0 46 12t36 28.5t28.5 47t21.5 54.5t16.5 64.5 t12.5 64t11 64.5zM484 979l-157 -123l-40 30l139 145z" glyph-name="Oacute" horiz-adv-x="489"/>
<glyph unicode="Ô" d="M501 404q-8 -53 -17 -96.5t-23.5 -93.5t-34 -87.5t-45 -70t-61 -50t-77.5 -17.5q-60 0 -95.5 39.5t-45 106t-7.5 131t13 135.5q13 81 30.5 144.5t47 127.5t76 100t107.5 36q37 0 65 -14.5t44 -37t25.5 -57.5t12 -67.5t0.5 -77.5t-5.5 -76.5t-9.5 -74.5zM424 399 q6 39 10 71t7 74.5t0 73.5t-11 60t-26.5 43.5t-45.5 14.5q-24 0 -44.5 -12t-35.5 -29t-28 -47t-21.5 -54.5t-17 -64t-13 -64t-10.5 -64.5q-6 -34 -8.5 -52.5t-7 -54.5t-5 -57.5t0 -52t6.5 -49t15 -36.5t25 -26.5t38 -8.5q25 0 46 12t36 28.5t28.5 47t21.5 54.5t16.5 64.5 t12.5 64t11 64.5zM528 902l-55 -47l-77 81l-99 -80l-37 46l151 126z" glyph-name="Ocircumflex" horiz-adv-x="489"/>
<glyph unicode="Õ" d="M501 404q-8 -53 -17 -96.5t-23.5 -93.5t-34 -87.5t-45 -70t-61 -50t-77.5 -17.5q-60 0 -95.5 39.5t-45 106t-7.5 131t13 135.5q13 81 30.5 144.5t47 127.5t76 100t107.5 36q37 0 65 -14.5t44 -37t25.5 -57.5t12 -67.5t0.5 -77.5t-5.5 -76.5t-9.5 -74.5zM424 399 q6 39 10 71t7 74.5t0 73.5t-11 60t-26.5 43.5t-45.5 14.5q-24 0 -44.5 -12t-35.5 -29t-28 -47t-21.5 -54.5t-17 -64t-13 -64t-10.5 -64.5q-6 -34 -8.5 -52.5t-7 -54.5t-5 -57.5t0 -52t6.5 -49t15 -36.5t25 -26.5t38 -8.5q25 0 46 12t36 28.5t28.5 47t21.5 54.5t16.5 64.5 t12.5 64t11 64.5zM557 927l-14 -17q-38 -42 -72 -42q-26 -1 -67 18t-64 19q-10 0 -18.5 -3.5t-13.5 -8t-13.5 -14t-12.5 -13.5l-9 -8l-20 25l9 12q41 48 81 53q26 2 70.5 -19t63.5 -20t51 33l8 10z" glyph-name="Otilde" horiz-adv-x="493"/>
<glyph unicode="Ö" d="M501 404q-8 -53 -17 -96.5t-23.5 -93.5t-34 -87.5t-45 -70t-61 -50t-77.5 -17.5q-60 0 -95.5 39.5t-45 106t-7.5 131t13 135.5q13 81 30.5 144.5t47 127.5t76 100t107.5 36q37 0 65 -14.5t44 -37t25.5 -57.5t12 -67.5t0.5 -77.5t-5.5 -76.5t-9.5 -74.5zM424 399 q6 39 10 71t7 74.5t0 73.5t-11 60t-26.5 43.5t-45.5 14.5q-24 0 -44.5 -12t-35.5 -29t-28 -47t-21.5 -54.5t-17 -64t-13 -64t-10.5 -64.5q-6 -34 -8.5 -52.5t-7 -54.5t-5 -57.5t0 -52t6.5 -49t15 -36.5t25 -26.5t38 -8.5q25 0 46 12t36 28.5t28.5 47t21.5 54.5t16.5 64.5 t12.5 64t11 64.5zM559 911q-4 -23 -22.5 -39.5t-41.5 -16.5t-37.5 16.5t-10.5 39.5q3 23 21.5 39.5t41.5 16.5t37.5 -16.5t11.5 -39.5zM380 911q-4 -23 -22.5 -39.5t-41.5 -16.5t-37.5 16.5t-10.5 39.5q3 23 21.5 39.5t41.5 16.5t37.5 -16.5t11.5 -39.5z" glyph-name="Odieresis" horiz-adv-x="492"/>
<glyph unicode="Ø" d="M592 806q-83 -128 -83 -129q18 -91 -8 -273q-8 -53 -17 -96.5t-23.5 -93.5t-34 -87.5t-45 -70t-61 -50t-77.5 -17.5q-86 0 -124 87l-43 -69l-43 25l69 106q-19 105 6 263q13 81 30.5 144.5t47 127.5t76 100t107.5 36q83 0 121 -72l59 90zM436 654q-8 40 -26.5 61.5 t-51.5 20.5q-24 0 -44.5 -12t-35.5 -29t-28 -47t-21.5 -54.5t-17 -64t-13 -64t-10.5 -64.5q-17 -100 -20 -161zM442 575l-271 -421q14 -90 81 -90q25 0 46 12t36 28.5t28.5 47t21.5 54.5t16.5 64.5t12.5 64t11 64.5q17 96 18 176z" glyph-name="Oslash" horiz-adv-x="522"/>
<glyph unicode="Ù" d="M505 796l-97 -614q-14 -85 -63.5 -137t-130.5 -53q-78 0 -114.5 47t-22.5 144l97 613h75l-97 -613q-18 -120 73 -120q49 1 74.5 35.5t32.5 83.5l97 614h76zM466 886l-49 -30l-118 123l73 52z" glyph-name="Ugrave" horiz-adv-x="431"/>
<glyph unicode="Ú" d="M505 796l-97 -614q-14 -85 -63.5 -137t-130.5 -53q-78 0 -114.5 47t-22.5 144l97 613h75l-97 -613q-18 -120 73 -120q49 1 74.5 35.5t32.5 83.5l97 614h76zM456 979l-157 -123l-40 30l139 145z" glyph-name="Uacute" horiz-adv-x="430"/>
<glyph unicode="Û" d="M505 796l-97 -614q-14 -85 -63.5 -137t-130.5 -53q-78 0 -114.5 47t-22.5 144l97 613h75l-97 -613q-18 -120 73 -120q49 1 74.5 35.5t32.5 83.5l97 614h76zM500 902l-55 -47l-77 81l-99 -80l-37 46l151 126z" glyph-name="Ucircumflex" horiz-adv-x="419"/>
<glyph unicode="Ü" d="M505 796l-97 -614q-14 -85 -63.5 -137t-130.5 -53q-78 0 -114.5 47t-22.5 144l97 613h75l-97 -613q-18 -120 73 -120q49 1 74.5 35.5t32.5 83.5l97 614h76zM514 910q-4 -23 -22.5 -39.5t-41.5 -16.5t-37.5 16.5t-10.5 39.5q3 23 21.5 39.5t41.5 16.5t37.5 -16.5 t11.5 -39.5zM335 910q-4 -23 -22.5 -39.5t-41.5 -16.5t-37.5 16.5t-10.5 39.5q3 23 21.5 39.5t41.5 16.5t37.5 -16.5t11.5 -39.5z" glyph-name="Udieresis" horiz-adv-x="438"/>
<glyph unicode="ß" d="M471 625q-26 -103 -76 -132l-18 -10l13 -8q24 -15 34.5 -47t7.5 -71t-5.5 -56t-5.5 -32q0 -1 -2 -15t-4 -25t-6 -31.5t-9 -37t-13 -37.5t-17.5 -37.5t-23 -33t-29 -27.5t-36 -18t-43.5 -7h-32l9 60l18 1q17 1 25 2.5t24 12t26 30.5t22.5 60.5t22.5 98.5q9 53 9 89.5 t-5 55t-17 28.5t-21.5 11.5t-25.5 1.5h-10l10 64h10q62 0 80 43q20 45 23.5 90t-12.5 74t-49 27q-64 -4 -83 -130l-99 -619h-68l72 452h-53l10 65h53l13 90q8 56 26 101t54 76.5t85 27.5q36 -3 61 -18t37 -35.5t17.5 -46.5t4.5 -47t-4 -40z" glyph-name="germandbls" horiz-adv-x="428"/>
<glyph unicode="à" d="M395 543l-85 -543h-71l6 42l-14 -13q-35 -35 -82 -38q-33 -4 -54.5 14.5t-30.5 48t-10.5 71t2 78.5t10.5 75q7 40 12.5 64t15.5 61t22.5 59.5t30 45.5t41.5 33.5t54 10.5q44 0 66 -28l13 -16l5 35h69zM291 285q1 8 4 29l4.5 31.5t3.5 30.5t1.5 31t-1.5 27.5t-5.5 25.5 t-10.5 18t-16.5 13.5t-23.5 4.5q-23 0 -41.5 -19t-31.5 -56t-20 -65.5t-15 -73.5q-10 -55 -13.5 -94.5t-1.5 -73.5t15.5 -51t38.5 -15q28 2 48.5 25t33 64t19 72.5t12.5 75.5zM392 651l-49 -30l-118 123l74 52z" glyph-name="agrave" horiz-adv-x="382"/>
<glyph unicode="á" d="M398 543l-85 -543h-70l6 42l-14 -13q-35 -35 -82 -38q-41 -5 -64.5 22t-28.5 75t-2 94.5t12 95.5q11 60 20.5 97.5t29 84t51 69.5t74.5 23q45 0 67 -28l13 -16l4 35h69zM295 285q1 8 4 29l4.5 31.5t3.5 30.5t1.5 31t-1.5 27.5t-5.5 25.5t-10.5 18t-16.5 13.5t-23.5 4.5 q-23 0 -41.5 -19t-31.5 -56t-20 -65.5t-15 -73.5q-10 -54 -14 -94.5t-1.5 -74t16 -50.5t38.5 -15q27 2 48 25t33.5 64t19 73t12.5 75zM395 744l-158 -123l-39 30l139 145z" glyph-name="aacute"/>
<glyph unicode="â" d="M399 543l-85 -543h-71l7 42l-14 -13q-35 -35 -82 -38q-41 -5 -64.5 22t-28.5 75t-2 94.5t12 95.5q11 60 20.5 97.5t29 84t51 69.5t74.5 23q45 0 67 -28l13 -16l4 35h69zM296 285q1 8 4 29l4.5 31.5t3.5 30.5t1.5 31t-1.5 27.5t-5.5 25.5t-10.5 18t-16.5 13.5t-23.5 4.5 q-23 0 -42 -19t-31.5 -55t-19.5 -66.5t-15 -73.5q-10 -54 -14 -94.5t-1.5 -74t16 -50.5t38.5 -15q27 2 48 25t33.5 64t19 73t12.5 75zM422 667l-55 -47l-77 81l-99 -80l-37 46l151 126z" glyph-name="acircumflex" horiz-adv-x="392"/>
<glyph unicode="ã" d="M398 543l-85 -543h-70l6 42l-14 -13q-35 -35 -82 -38q-41 -5 -64.5 22t-28.5 75t-2 94.5t12 95.5q11 60 20.5 97.5t29 84t51 69.5t74.5 23q45 0 67 -28l13 -16l4 35h69zM295 285q1 8 4 29l4.5 31.5t3.5 30.5t1.5 31t-1.5 27.5t-5.5 25.5t-10.5 18t-16.5 13.5t-23.5 4.5 q-23 0 -41.5 -19t-31.5 -56t-20 -65.5t-15 -73.5q-10 -54 -14 -94.5t-1.5 -74t16 -50.5t38.5 -15q27 2 48 25t33.5 64t19 73t12.5 75zM445 692l-14 -17q-37 -40 -70 -42q-25 -1 -65.5 18.5t-62.5 19.5q-13 0 -21 -4.5t-21 -18.5t-15 -16l-8 -7l-20 24l9 11q21 25 37.5 37 t41.5 15q25 2 68.5 -18.5t62.5 -19.5q18 1 49 32l9 10z" glyph-name="atilde" horiz-adv-x="388"/>
<glyph unicode="ä" d="M394 543l-85 -543h-71l6 42l-14 -13q-35 -35 -82 -38q-33 -4 -54.5 14.5t-30.5 48t-10.5 71t2 78.5t10.5 75q7 40 12.5 64t15.5 61t22.5 59.5t30 45.5t41.5 33.5t54 10.5q44 0 66 -28l13 -16l5 35h69zM290 285q1 8 4 29l4.5 31.5t3.5 30.5t1.5 31t-1.5 27.5t-5.5 25.5 t-10.5 18t-16.5 13.5t-23.5 4.5q-23 0 -41.5 -19t-31.5 -56t-20 -65.5t-15 -73.5q-10 -55 -13.5 -94.5t-1.5 -73.5t15.5 -51t38.5 -15q28 2 48.5 25t33 64t19 72.5t12.5 75.5zM452 673q-3 -23 -21.5 -39.5t-41.5 -16.5t-37.5 16.5t-11.5 39.5q4 23 22.5 39.5t41.5 16.5 t37.5 -16.5t10.5 -39.5zM273 673q-3 -23 -21.5 -39.5t-41.5 -16.5t-37.5 16.5t-11.5 39.5q4 23 22.5 39.5t41.5 16.5t37.5 -16.5t10.5 -39.5z" glyph-name="adieresis" horiz-adv-x="383"/>
<glyph unicode="å" d="M403 543l-85 -543h-71l7 42l-14 -13q-36 -35 -82 -38q-41 -5 -64.5 22t-28.5 75t-2 94.5t12 95.5q11 60 20.5 97.5t29 84t51 69.5t74.5 23q44 0 66 -28l13 -16l5 35h69zM299 285q16 107 14 139q-5 71 -57 72q-24 0 -42.5 -19t-31.5 -56t-20 -65.5t-15 -73.5 q-10 -55 -13.5 -94.5t-1 -73.5t16 -51t38.5 -15q27 2 47.5 25t33 64t19 72.5t12.5 75.5zM375 703q0 -34 -24.5 -61t-64.5 -27q-32 0 -49 18.5t-16 45.5q1 33 25.5 60t64.5 27q31 0 47.5 -18t16.5 -45zM344 698q1 15 -9.5 26.5t-29.5 11.5q-22 0 -36 -15.5t-15 -34.5 q-1 -17 8.5 -28t28.5 -11q23 0 37.5 15.5t15.5 35.5z" glyph-name="aring" horiz-adv-x="383"/>
<glyph unicode="æ" d="M605 296l-6 -33h-226l-2 -9q-32 -190 54 -190q32 -1 54.5 33t29.5 79l2 16h75l-4 -16q-14 -69 -54.5 -121.5t-106.5 -55.5q-62 -3 -95 43l-6 -42h-71l7 42l-14 -13q-36 -35 -82 -38q-41 -5 -64.5 22t-28.5 75.5t-2.5 94.5t11.5 95q9 48 15.5 77.5t21 71.5t31.5 66 t45 41.5t63 17.5q44 0 66 -28l13 -16l5 35h69q-5 -27 -5 -28q45 45 101 45q40 0 66.5 -25.5t36 -66t9.5 -84.5t-8 -88zM540 346q2 32 4 64.5t-11 57.5t-41 25q-33 2 -65.5 -49.5t-40.5 -103.5l-3 -16h155zM301 285q15 106 14 138q-6 71 -58 73q-23 0 -41.5 -19t-31.5 -56 t-20 -65.5t-15 -73.5q-10 -55 -13.5 -94.5t-1.5 -73.5t15.5 -51t38.5 -15q28 2 48.5 25t33 64t19 72.5t12.5 75.5z" glyph-name="ae" horiz-adv-x="596"/>
<glyph unicode="ç" d="M357 530l-11 -78l-8 10q-25 25 -53 27q-31 2 -58.5 -30.5t-44.5 -77.5t-24 -94q-35 -224 56 -226q15 0 33.5 10t28.5 20l11 10l-12 -80l-11 -7q-34 -20 -70 -20q-42 1 -70 29t-38 73t-10 93t9 95q10 52 26 97.5t39.5 86t58.5 64t76 23.5t64 -19zM226 -69l-100 -166 l-33 19l84 171z" glyph-name="ccedilla" horiz-adv-x="327"/>
<glyph unicode="è" d="M390 285l-7 -32h-225l-2 -10q-32 -189 54 -189q31 -1 53.5 33t30.5 79l2 16h74l-3 -16q-14 -69 -55 -121.5t-107 -55.5q-39 -2 -66 16t-39.5 46.5t-16.5 68.5t-2 75.5t8 75.5q10 71 32.5 130.5t65 103.5t98.5 44q53 0 82 -44t30 -102.5t-7 -117.5zM325 336q3 33 3 50 t-2.5 43.5t-15 39.5t-34.5 14q-33 2 -65.5 -50t-39.5 -104l-3 -16h155zM380 651l-49 -30l-118 123l73 52z" glyph-name="egrave" horiz-adv-x="397"/>
<glyph unicode="é" d="M390 285l-7 -32h-225l-2 -10q-32 -189 54 -189q31 -1 53.5 33t30.5 79l2 16h74l-3 -16q-14 -69 -55 -121.5t-107 -55.5q-39 -2 -66 16t-39.5 46.5t-16.5 68.5t-2 75.5t8 75.5q10 71 32.5 130.5t65 103.5t98.5 44q53 0 82 -44t30 -102.5t-7 -117.5zM325 336q3 33 3 50 t-2.5 43.5t-15 39.5t-34.5 14q-33 2 -65.5 -50t-39.5 -104l-3 -16h155zM396 744l-157 -123l-40 30l139 145z" glyph-name="eacute" horiz-adv-x="401"/>
<glyph unicode="ê" d="M390 285l-7 -32h-225l-2 -10q-32 -189 54 -189q31 -1 53.5 33t30.5 79l2 16h74l-3 -16q-14 -69 -55 -121.5t-107 -55.5q-39 -2 -66 16t-39.5 46.5t-16.5 68.5t-2 75.5t8 75.5q10 71 32.5 130.5t65 103.5t98.5 44q53 0 82 -44t30 -102.5t-7 -117.5zM325 336q3 33 3 50 t-2.5 43.5t-15 39.5t-34.5 14q-33 2 -65.5 -50t-39.5 -104l-3 -16h155zM439 667l-55 -47l-77 81l-99 -80l-37 46l151 126z" glyph-name="ecircumflex" horiz-adv-x="392"/>
<glyph unicode="ë" d="M390 285l-7 -32h-225l-2 -10q-32 -189 54 -189q31 -1 53.5 33t30.5 79l2 16h74l-3 -16q-14 -69 -55 -121.5t-107 -55.5q-39 -2 -66 16t-39.5 46.5t-16.5 68.5t-2 75.5t8 75.5q10 71 32.5 130.5t65 103.5t98.5 44q53 0 82 -44t30 -102.5t-7 -117.5zM325 336q3 33 3 50 t-2.5 43.5t-15 39.5t-34.5 14q-33 2 -65.5 -50t-39.5 -104l-3 -16h155zM461 673q-4 -23 -22.5 -39.5t-41.5 -16.5t-37.5 16.5t-10.5 39.5q3 23 21.5 39.5t41.5 16.5t37.5 -16.5t11.5 -39.5zM282 673q-4 -23 -22.5 -39.5t-41.5 -16.5t-37.5 16.5t-10.5 39.5q3 23 21.5 39.5 t41.5 16.5t37.5 -16.5t11.5 -39.5z" glyph-name="edieresis" horiz-adv-x="394"/>
<glyph unicode="ì" d="M277 651l-48 -30l-119 123l74 52zM212 544l-86 -544h-69l86 544h69z" glyph-name="igrave" horiz-adv-x="190"/>
<glyph unicode="í" d="M332 740l-158 -123l-39 29l139 145zM214 544l-86 -544h-70l86 544h70z" glyph-name="iacute" horiz-adv-x="187"/>
<glyph unicode="î" d="M339 664l-55 -46l-77 81l-99 -81l-37 46l151 126zM216 544l-85 -544h-70l85 544h70z" glyph-name="icircumflex" horiz-adv-x="190"/>
<glyph unicode="ï" d="M351 673q-4 -23 -22.5 -39.5t-41.5 -16.5t-37.5 16.5t-10.5 39.5q3 23 21.5 39.5t41.5 16.5t37.5 -16.5t11.5 -39.5zM172 673q-4 -23 -22.5 -39.5t-41.5 -16.5t-37.5 16.5t-10.5 39.5q3 23 21.5 39.5t41.5 16.5t37.5 -16.5t11.5 -39.5zM215 544l-85 -544h-69l85 544h69z " glyph-name="idieresis" horiz-adv-x="194"/>
<glyph unicode="ñ" d="M379 349l-55 -349h-69l55 349q1 4 5 27.5t5 38t0.5 34.5t-9.5 32t-26 16q-48 11 -77.5 -32t-39.5 -109l-55 -356h-69l84 543h69l-7 -43l10 7q30 28 61 38q51 18 91 -1q16 -7 25.5 -20.5t13 -26t3 -35t-2 -35.5t-6.5 -40.5t-6 -37.5zM437 688l-15 -17q-35 -40 -71 -42 q-26 -1 -66.5 18t-62.5 19q-13 0 -21.5 -4t-21 -18t-15.5 -17l-8 -7l-20 25l9 11q14 17 23.5 26t24 16.5t32.5 9.5q25 2 69 -18.5t62 -20.5q11 1 22 8t20 16t10 9l8 11z" glyph-name="ntilde" horiz-adv-x="381"/>
<glyph unicode="ò" d="M402 275q-41 -284 -198 -285q-38 -1 -64.5 17.5t-39 46.5t-16.5 67.5t-2 75t8 74.5q8 54 22 100t37 88.5t59 67t81 24.5q151 0 113 -276zM329 275q4 28 5.5 45t3.5 45t-1 45.5t-8.5 36.5t-18 28t-30.5 10q-25 1 -45.5 -18.5t-35 -53.5t-23.5 -70t-15 -75 q-30 -211 52 -213q26 0 46.5 20t34 55t21.5 69.5t14 75.5zM400 651l-49 -30l-118 123l73 52z" glyph-name="ograve" horiz-adv-x="407"/>
<glyph unicode="ó" d="M402 275q-41 -284 -198 -285q-38 -1 -64.5 17.5t-39 46.5t-16.5 67.5t-2 75t8 74.5q8 54 22 100t37 88.5t59 67t81 24.5q151 0 113 -276zM329 275q4 28 5.5 45t3.5 45t-1 45.5t-8.5 36.5t-18 28t-30.5 10q-25 1 -45.5 -18.5t-35 -53.5t-23.5 -70t-15 -75 q-30 -211 52 -213q26 0 46.5 20t34 55t21.5 69.5t14 75.5zM434 750l-157 -123l-40 30l139 145z" glyph-name="oacute" horiz-adv-x="406"/>
<glyph unicode="ô" d="M402 275q-41 -284 -198 -285q-38 -1 -64.5 17.5t-39 46.5t-16.5 67.5t-2 75t8 74.5q8 54 22 100t37 88.5t59 67t81 24.5q151 0 113 -276zM329 275q4 28 5.5 45t3.5 45t-1 45.5t-8.5 36.5t-18 28t-30.5 10q-25 1 -45.5 -18.5t-35 -53.5t-23.5 -70t-15 -75 q-30 -211 52 -213q26 0 46.5 20t34 55t21.5 69.5t14 75.5zM456 667l-55 -47l-77 81l-99 -80l-37 46l151 126z" glyph-name="ocircumflex" horiz-adv-x="411"/>
<glyph unicode="õ" d="M405 275q-41 -284 -198 -285q-38 -1 -64.5 17.5t-39 46.5t-17 67.5t-2.5 75t8 74.5q45 280 200 280q151 0 113 -276zM332 275q4 28 5.5 45t3.5 45t-1 45.5t-8.5 36.5t-18 28t-30.5 10q-25 1 -45.5 -18.5t-35 -53.5t-23.5 -70t-15 -75q-30 -211 51 -213q26 0 46.5 20 t34 55t22 69.5t14.5 75.5zM464 688l-15 -17q-35 -40 -71 -42q-26 -1 -66.5 18t-62.5 19q-13 0 -21.5 -4t-21 -18t-15.5 -17l-8 -7l-20 25l9 11q40 47 80 52q25 2 69 -18.5t62 -20.5q11 1 22 8t20 16t10 9l8 11z" glyph-name="otilde" horiz-adv-x="415"/>
<glyph unicode="ö" d="M402 275q-41 -284 -198 -285q-38 -1 -64.5 17.5t-39 46.5t-16.5 67.5t-2 75t8 74.5q8 54 22 100t37 88.5t59 67t81 24.5q151 0 113 -276zM329 275q4 28 5.5 45t3.5 45t-1 45.5t-8.5 36.5t-18 28t-30.5 10q-25 1 -45.5 -18.5t-35 -53.5t-23.5 -70t-15 -75 q-30 -211 52 -213q26 0 46.5 20t34 55t21.5 69.5t14 75.5zM470 673q-4 -23 -22.5 -39.5t-41.5 -16.5t-37.5 16.5t-10.5 39.5q3 23 21.5 39.5t41.5 16.5t37.5 -16.5t11.5 -39.5zM291 673q-4 -23 -22.5 -39.5t-41.5 -16.5t-37.5 16.5t-10.5 39.5q3 23 21.5 39.5t41.5 16.5 t37.5 -16.5t11.5 -39.5z" glyph-name="odieresis" horiz-adv-x="402"/>
<glyph unicode="÷" d="M390 391q-2 -22 -18 -36.5t-39 -14.5q-17 0 -29 15t-10 32q3 21 19.5 35.5t34.5 14.5t31 -14.5t11 -31.5zM543 285l-8 -45h-445l7 45h446zM348 129q-2 -23 -18 -38t-38 -15q-18 0 -30 15.5t-10 33.5q4 21 20 35t35 14q18 0 30.5 -14t10.5 -31z" glyph-name="divide" horiz-adv-x="553"/>
<glyph unicode="ø" d="M477 530l-70 -95q9 -68 -5 -160q-41 -284 -198 -285q-60 -1 -93 45l-36 -49l-34 17q26 34 52 71q-23 72 -3 197q8 54 22 100t37 88.5t59 67t81 24.5q77 0 106 -71l47 65zM338 404q-5 78 -58 81q-25 1 -45.5 -18.5t-35 -53.5t-23.5 -70t-15 -75q-10 -84 -8 -115zM337 340 l-177 -238q15 -46 53 -47q26 0 46.5 20t34 55t21.5 69.5t14 75.5q6 40 8 65z" glyph-name="oslash" horiz-adv-x="452"/>
<glyph unicode="ù" d="M420 543l-66 -411q-11 -73 -58 -107.5t-100 -33.5q-145 0 -122 146l63 406h70l-58 -365q-19 -121 52 -123q41 -1 61.5 33t29.5 90l58 365h70zM388 651l-49 -30l-118 123l73 52z" glyph-name="ugrave" horiz-adv-x="387"/>
<glyph unicode="ú" d="M420 543l-66 -411q-11 -73 -58 -107.5t-100 -33.5q-145 0 -122 146l63 406h70l-58 -365q-19 -121 52 -123q41 -1 61.5 33t29.5 90l58 365h70zM432 739l-157 -123l-40 30l139 145z" glyph-name="uacute" horiz-adv-x="383"/>
<glyph unicode="û" d="M393 543l-66 -411q-11 -73 -58 -107.5t-100 -33.5q-145 0 -122 146l63 406h70l-58 -365q-19 -121 52 -123q41 -1 61.5 33t29.5 90l58 365h70zM418 667l-55 -47l-77 81l-98 -80l-38 46l151 126z" glyph-name="ucircumflex" horiz-adv-x="377"/>
<glyph unicode="ü" d="M420 543l-66 -411q-11 -73 -58 -107.5t-100 -33.5q-145 0 -122 146l63 406h70l-58 -365q-19 -121 52 -123q41 -1 61.5 33t29.5 90l58 365h70zM458 673q-4 -23 -22.5 -39.5t-41.5 -16.5t-37.5 16.5t-10.5 39.5q3 23 21.5 39.5t41.5 16.5t37.5 -16.5t11.5 -39.5zM279 673 q-4 -23 -22.5 -39.5t-41.5 -16.5t-37.5 16.5t-10.5 39.5q3 23 21.5 39.5t41.5 16.5t37.5 -16.5t11.5 -39.5z" glyph-name="udieresis" horiz-adv-x="383"/>
</font>
</defs>
</svg>
